<?xml version="1.0" encoding="utf-8"?>
<svg width="512" height="512" viewBox="0 0 512 512" fill="none" stroke="none" version="1.1" xmlns:xlink="http://www.w3.org/1999/xlink" xmlns="http://www.w3.org/2000/svg">
  <defs>
    <path id="path_1" d="M282 0L282 0L282 282L0 282L0 0L282 0Z" />
    <rect id="rect_2" x="0" y="0" width="282" height="282" />
    <clipPath id="clip_path_3">
      <use xlink:href="#rect_2" />
    </clipPath>
    <path id="path_4" d="M37.6 0L37.6 0L37.6 37.6L0 37.6L0 0L37.6 0Z" />
    <rect id="rect_5" x="0" y="0" width="37.6" height="37.6" />
    <clipPath id="clip_path_6">
      <use xlink:href="#rect_5" />
    </clipPath>
  </defs>
  <g id="Group">
    <rect id="Rectangle" width="512" height="512" style="fill:#6E3026;fill-rule:evenodd;mix-blend-mode:normal;" />
    <g id="tennis-racket-svgrepo-com" opacity="1" clip-path="url(#clip_path_3)" transform="matrix(1 0 0 1 115 115)">
      <g>
        <use xlink:href="#path_1" style="mix-blend-mode:normal;" />
        <g>
          <path id="Shape" d="M282 74.0786C282 53.2041 274.519 34.2974 260.935 20.841C247.368 7.40171 228.314 0 207.284 0C179.045 0 149.908 12.8198 127.343 35.1713C106.612 55.7074 94.0074 81.7456 92.0799 107.553C91.5021 111.244 90.9626 115.163 90.3964 119.305C87.1527 143.022 83.1465 172.239 67.1151 190.76C65.7065 190.988 64.393 191.646 63.3708 192.667C63.3708 192.667 5.19846 250.84 5.19846 250.84C-1.73282 257.772 -1.73282 269.05 5.19846 275.982C8.55641 279.34 13.0207 281.189 17.7694 281.189C22.5181 281.189 26.9824 279.339 30.341 275.981C30.341 275.981 88.5017 217.796 88.5017 217.796C89.5513 216.746 90.1817 215.439 90.4053 214.078C108.926 198.036 138.152 194.029 161.875 190.784C166.353 190.171 170.582 189.593 174.53 188.961C175.51 188.803 176.405 188.441 177.186 187.93C201.974 185.163 226.734 172.907 246.468 153.358C269.049 130.99 282 102.094 282 74.0786C282 74.0786 282 74.0786 282 74.0786ZM99.4706 148.893C102.878 155.897 107.378 162.241 112.878 167.69C118.699 173.456 125.534 178.108 133.101 181.544C115.428 185.125 97.0193 190.996 82.9024 202.53C82.9024 202.53 78.6521 198.28 78.6521 198.28C90.0094 184.378 95.8747 166.317 99.4706 148.893C99.4706 148.893 99.4706 148.893 99.4706 148.893ZM20.67 266.312C19.8953 267.087 18.8649 267.514 17.7695 267.514C16.6735 267.514 15.6437 267.087 14.8683 266.312C13.269 264.713 13.269 262.11 14.8683 260.511C14.8683 260.511 68.2058 207.173 68.2058 207.173L73.9965 212.963L20.67 266.312C20.67 266.312 20.67 266.312 20.67 266.312ZM166.536 174.855C166.535 174.855 166.531 174.855 166.528 174.855C148.872 174.853 133.648 169.015 122.502 157.974C111.371 146.948 105.488 131.898 105.488 114.451C105.488 112.676 105.556 110.895 105.677 109.112C105.692 109.015 105.707 108.911 105.723 108.813C105.798 108.345 105.824 107.88 105.803 107.424C107.765 85.2554 118.877 62.8068 136.968 44.8868C156.991 25.0516 182.621 13.6759 207.284 13.6759C224.938 13.6759 240.163 19.5131 251.311 30.5572C262.442 41.5836 268.325 56.6331 268.325 74.0793C268.324 98.4704 256.85 123.826 236.844 143.644C216.82 163.48 191.196 174.855 166.536 174.855C166.536 174.855 166.536 174.855 166.536 174.855Z" style="fill:#FFFFFF;mix-blend-mode:normal;" transform="matrix(1 0 0 1 -0 0.406)" />
          <g id="tennis-ball-svgrepo-com" opacity="1" clip-path="url(#clip_path_6)" transform="matrix(1 0 0 1 188 206.8)">
            <g>
              <use xlink:href="#path_4" style="mix-blend-mode:normal;" />
              <g>
                <path id="Group" d="M5.77004 32.3523C-1.71328 25.1553 -1.94833 13.253 5.24437 5.76965C8.94115 1.91902 13.8859 -0.0127136 18.8391 6.29631e-05C17.9245 1.79076 16.7664 3.42333 15.3859 4.87212C14.5996 5.69696 13.7449 6.43631 12.8431 7.21841C11.9541 7.98768 11.0353 8.78687 10.1891 9.66726C7.86844 12.0819 6.62478 15.2573 6.69316 18.6036C6.76154 21.9543 8.12487 25.0741 10.5395 27.3948C12.8901 29.6556 15.9672 30.8906 19.2195 30.8906C19.305 30.8906 19.3904 30.8864 19.4759 30.8864C22.8265 30.818 25.9464 29.4547 28.267 27.04C29.1175 26.1554 29.8739 25.2109 30.609 24.292C31.3569 23.356 32.0621 22.4757 32.8527 21.6593C34.2459 20.2191 35.8315 19.0011 37.5837 18.0139C37.7889 22.9586 36.0538 27.976 32.3527 31.8266C25.1558 39.3099 13.2534 39.545 5.77004 32.3523ZM11.8816 11.287C12.6594 10.4835 13.4971 9.75697 14.3817 8.9877C15.2878 8.20133 16.2237 7.38932 17.087 6.48756C18.8521 4.63703 20.288 2.51299 21.365 0.170978C25.1686 0.692374 28.8441 2.3805 31.8186 5.24818C34.7974 8.11158 36.6265 11.7186 37.2975 15.4966C35.0025 16.6633 32.9341 18.1848 31.1561 20.0225C30.2886 20.92 29.5151 21.8858 28.7672 22.8218C28.0321 23.7364 27.3397 24.6039 26.5662 25.4074C24.6814 27.3691 22.1429 28.4759 19.4247 28.5315C16.7024 28.5827 14.1253 27.5742 12.1637 25.6895C10.202 23.8048 9.09511 21.2661 9.03956 18.548C8.98827 15.8257 9.99687 13.2486 11.8816 11.287Z" style="fill:#FFFFFF;fill-rule:evenodd;mix-blend-mode:normal;" transform="matrix(1 0 0 1 -0 0.002)" />
              </g>
            </g>
          </g>
        </g>
      </g>
    </g>
  </g>
</svg>